<?xml version="1.0" standalone="no"?>
<!DOCTYPE svg PUBLIC "-//W3C//DTD SVG 20010904//EN"
 "http://www.w3.org/TR/2001/REC-SVG-20010904/DTD/svg10.dtd">
<svg version="1.0" xmlns="http://www.w3.org/2000/svg"
 width="512.000000pt" height="512.000000pt" viewBox="0 0 512.000000 512.000000"
 preserveAspectRatio="xMidYMid meet">

<g transform="translate(0.000000,512.000000) scale(0.100000,-0.100000)"
fill="#0a66c2" stroke="none">
<path d="M485 5110 c-202 -27 -389 -187 -455 -390 l-25 -75 0 -2085 0 -2085
24 -74 c59 -177 195 -313 372 -372 l74 -24 2085 0 2085 0 74 24 c213 71 356
241 391 468 7 46 10 719 8 2113 l-3 2045 -23 65 c-65 180 -187 304 -362 368
l-75 27 -2055 1 c-1130 1 -2082 -2 -2115 -6z m871 -744 c313 -155 351 -576 71
-782 -85 -63 -172 -87 -290 -82 -77 3 -103 9 -159 35 -329 154 -362 608 -57
804 83 53 150 70 261 66 89 -4 105 -7 174 -41z m2449 -1150 c339 -102 542
-358 594 -749 7 -50 11 -386 11 -918 l0 -839 -379 0 -379 0 -5 718 c-4 779 -5
785 -62 910 -40 86 -87 137 -163 174 -65 32 -70 33 -197 33 -125 0 -132 -1
-197 -32 -82 -39 -147 -102 -188 -182 -65 -129 -63 -113 -67 -903 l-4 -718
-369 0 -370 0 0 1235 0 1235 370 0 370 0 0 -161 0 -161 56 72 c108 138 280
249 458 296 83 22 107 24 261 20 149 -3 181 -6 260 -30z m-2255 -1271 l0
-1235 -385 0 -385 0 0 1235 0 1235 385 0 385 0 0 -1235z"/>
</g>
</svg>
